<?xml version="1.0" encoding="UTF-8" standalone="no"?>
<!DOCTYPE svg PUBLIC "-//W3C//DTD SVG 1.1//EN"
 "http://www.w3.org/Graphics/SVG/1.1/DTD/svg11.dtd">
<!-- Generated by graphviz version 2.40.1 (20161225.0304)
 -->
<!-- Title: D Pages: 1 -->
<svg width="404pt" height="511pt"
 viewBox="0.00 0.00 404.00 511.00" xmlns="http://www.w3.org/2000/svg" xmlns:xlink="http://www.w3.org/1999/xlink">
<g id="graph0" class="graph" transform="scale(1 1) rotate(0) translate(4 507)">
<title>D</title>
<polygon fill="#ffffff" stroke="transparent" points="-4,4 -4,-507 400,-507 400,4 -4,4"/>
<g id="clust1" class="cluster">
<title>cluster_p</title>
<polygon fill="none" stroke="#000000" points="83,-359 83,-495 237,-495 237,-359 83,-359"/>
<text text-anchor="middle" x="160" y="-479.8" font-family="Times,serif" font-size="14.00" fill="#000000">Stats Server</text>
</g>
<g id="clust2" class="cluster">
<title>cluster_Datadog</title>
</g>
<g id="clust6" class="cluster">
<title>cluster_j</title>
<polygon fill="none" stroke="#000000" points="8,-8 8,-334 262,-334 262,-8 8,-8"/>
<text text-anchor="middle" x="135" y="-318.8" font-family="Times,serif" font-size="14.00" fill="#000000">Redis Cluster</text>
</g>
<g id="clust7" class="cluster">
<title>cluster_Prometheus</title>
</g>
<g id="clust8" class="cluster">
<title>cluster_redis1</title>
</g>
<g id="clust9" class="cluster">
<title>cluster_redis2</title>
</g>
<g id="clust10" class="cluster">
<title>cluster_redis3</title>
</g>
<!-- Servers_icon -->
<g id="node1" class="node">
<title>Servers_icon</title>
<image xlink:href="server.svg" width="54px" height="47px" preserveAspectRatio="xMinYMin meet" x="91" y="-427.5"/>
</g>
<!-- Datadog_icon -->
<g id="node2" class="node">
<title>Datadog_icon</title>
<image xlink:href="dd-icon.svg" width="58px" height="58px" preserveAspectRatio="xMinYMin meet" x="163" y="-433"/>
</g>
<!-- internet_icon -->
<g id="node4" class="node">
<title>internet_icon</title>
<image xlink:href="internet.svg" width="45px" height="36px" preserveAspectRatio="xMinYMin meet" x="274.5" y="-265"/>
</g>
<!-- Datadog_icon&#45;&gt;internet_icon -->
<g id="edge2" class="edge">
<title>Datadog_icon&#45;&gt;internet_icon</title>
<path fill="none" stroke="#ff0000" d="M211.5036,-374.8374C230.8762,-345.8709 260.3291,-301.8317 279.115,-273.7423"/>
<polygon fill="#ff0000" stroke="#ff0000" points="282.1633,-275.4802 284.8132,-265.2221 276.3446,-271.5887 282.1633,-275.4802"/>
<text text-anchor="middle" x="247.5" y="-344.6" font-family="Times,serif" font-size="8.00" fill="#ff0000"> &#160;&#160;&#160;submit</text>
</g>
<!-- Prometheus_icon -->
<g id="node7" class="node">
<title>Prometheus_icon</title>
<image xlink:href="prom.svg" width="54px" height="50px" preserveAspectRatio="xMinYMin meet" x="132" y="-272"/>
</g>
<!-- Datadog_icon&#45;&gt;Prometheus_icon -->
<g id="edge1" class="edge">
<title>Datadog_icon&#45;&gt;Prometheus_icon</title>
<path fill="none" stroke="#0000ff" d="M181.7236,-374.7962C179.2743,-367.1221 176.8403,-358.8064 175,-351 169.6458,-328.2881 165.6512,-302.3488 162.9925,-282.0572"/>
<polygon fill="#0000ff" stroke="#0000ff" points="166.4489,-281.4906 161.7239,-272.0078 159.504,-282.3674 166.4489,-281.4906"/>
<text text-anchor="middle" x="183.5" y="-344.6" font-family="Times,serif" font-size="8.00" fill="#0000ff"> &#160;poll</text>
</g>
<!-- enduser_icon -->
<g id="node3" class="node">
<title>enduser_icon</title>
<image xlink:href="computer-laptop.svg" width="54px" height="50px" preserveAspectRatio="xMinYMin meet" x="342" y="-272"/>
</g>
<!-- ddhq_icon -->
<g id="node5" class="node">
<title>ddhq_icon</title>
<image xlink:href="dd-icon.svg" width="58px" height="58px" preserveAspectRatio="xMinYMin meet" x="305" y="-177"/>
</g>
<!-- enduser_icon&#45;&gt;ddhq_icon -->
<g id="edge4" class="edge">
<title>enduser_icon&#45;&gt;ddhq_icon</title>
<path fill="none" stroke="#0000ff" d="M360.0775,-221.762C356.3116,-211.1101 351.8418,-198.4668 347.6759,-186.6833"/>
<polygon fill="#0000ff" stroke="#0000ff" points="350.9033,-185.3115 344.2702,-177.05 344.3036,-187.6448 350.9033,-185.3115"/>
<text text-anchor="middle" x="364" y="-197.6" font-family="Times,serif" font-size="8.00" fill="#0000ff"> &#160;&#160;https</text>
</g>
<!-- internet_icon&#45;&gt;ddhq_icon -->
<g id="edge3" class="edge">
<title>internet_icon&#45;&gt;ddhq_icon</title>
<path fill="none" stroke="#ff0000" d="M303.6139,-228.685C307.2352,-218.7116 311.8235,-206.1625 316,-195 317.0191,-192.2764 318.0774,-189.4666 319.1475,-186.639"/>
<polygon fill="#ff0000" stroke="#ff0000" points="322.5084,-187.6477 322.7916,-177.0566 315.9656,-185.1594 322.5084,-187.6477"/>
<text text-anchor="middle" x="331.5" y="-197.6" font-family="Times,serif" font-size="8.00" fill="#ff0000"> &#160;&#160;&#160;submit</text>
</g>
<!-- Redis_icon -->
<g id="node6" class="node">
<title>Redis_icon</title>
<image xlink:href="server.svg" width="54px" height="47px" preserveAspectRatio="xMinYMin meet" x="50" y="-270.5"/>
</g>
<!-- redis1_icon -->
<g id="node8" class="node">
<title>redis1_icon</title>
<image xlink:href="redis-icon.svg" width="58px" height="58px" preserveAspectRatio="xMinYMin meet" x="24" y="-82"/>
</g>
<!-- Prometheus_icon&#45;&gt;redis1_icon -->
<g id="edge5" class="edge">
<title>Prometheus_icon&#45;&gt;redis1_icon</title>
<path fill="none" stroke="#0000ff" d="M143.4432,-221.9551C135.3505,-208.709 125.4173,-192.1032 117,-177 101.1566,-148.572 84.3174,-115.8337 71.8903,-91.137"/>
<polygon fill="#0000ff" stroke="#0000ff" points="74.9657,-89.4618 67.3548,-82.0913 68.7082,-92.5993 74.9657,-89.4618"/>
<text text-anchor="middle" x="128" y="-146.1" font-family="Times,serif" font-size="8.00" fill="#0000ff">collect</text>
</g>
<!-- redis2_icon -->
<g id="node9" class="node">
<title>redis2_icon</title>
<image xlink:href="redis-icon.svg" width="58px" height="58px" preserveAspectRatio="xMinYMin meet" x="106" y="-82"/>
</g>
<!-- Prometheus_icon&#45;&gt;redis2_icon -->
<g id="edge6" class="edge">
<title>Prometheus_icon&#45;&gt;redis2_icon</title>
<path fill="none" stroke="#0000ff" d="M155.8624,-221.6379C151.7975,-188.7797 144.6671,-131.1422 139.8892,-92.5209"/>
<polygon fill="#0000ff" stroke="#0000ff" points="143.3098,-91.663 138.6085,-82.1684 136.3628,-92.5225 143.3098,-91.663"/>
<text text-anchor="middle" x="161" y="-146.1" font-family="Times,serif" font-size="8.00" fill="#0000ff">collect</text>
</g>
<!-- redis3_icon -->
<g id="node10" class="node">
<title>redis3_icon</title>
<image xlink:href="redis-icon.svg" width="58px" height="58px" preserveAspectRatio="xMinYMin meet" x="188" y="-82"/>
</g>
<!-- Prometheus_icon&#45;&gt;redis3_icon -->
<g id="edge7" class="edge">
<title>Prometheus_icon&#45;&gt;redis3_icon</title>
<path fill="none" stroke="#0000ff" d="M166.5825,-221.6379C176.4481,-188.6392 193.7853,-130.6491 205.3322,-92.0268"/>
<polygon fill="#0000ff" stroke="#0000ff" points="208.7684,-92.752 208.2795,-82.1684 202.0617,-90.7468 208.7684,-92.752"/>
<text text-anchor="middle" x="207" y="-146.1" font-family="Times,serif" font-size="8.00" fill="#0000ff">collect</text>
</g>
</g>
</svg>
