<?xml version='1.0' encoding='iso-8859-1'?>
<svg version="1.1" xmlns="http://www.w3.org/2000/svg" viewBox="0 0 44 44" xmlns:xlink="http://www.w3.org/1999/xlink" enable-background="new 0 0 44 44">
  <g>
    <g>
      <path d="M43.951,21C43.44,9.652,34.349,0.562,23,0.051V0h-2v0.051C9.651,0.562,0.56,9.652,0.049,21H0v2h0.049    C0.56,34.348,9.651,43.438,21,43.949V44h2v-0.051C34.349,43.438,43.44,34.348,43.951,23H44v-2H43.951z M18.593,2.312    C15.635,4.185,13.141,6.868,11.315,10H6.023C9.019,6.018,13.471,3.192,18.593,2.312z M4.719,12h5.554    c-1.304,2.801-2.1,5.87-2.239,9H2.045C2.207,17.727,3.17,14.672,4.719,12z M2.045,23h5.988c0.14,3.13,0.936,6.199,2.239,9H4.719    C3.17,29.328,2.207,26.273,2.045,23z M6.023,34h5.291c1.826,3.132,4.32,5.815,7.278,7.688C13.471,40.808,9.019,37.982,6.023,34z     M21,40.787C18.05,39.3,15.527,36.898,13.641,34H21V40.787z M21,32h-8.521c-1.418-2.769-2.29-5.862-2.444-9H21V32z M21,21H10.035    c0.154-3.138,1.026-6.231,2.444-9H21V21z M21,10h-7.359C15.527,7.102,18.05,4.7,21,3.213V10z M37.977,10h-5.27    c-1.801-3.113-4.258-5.787-7.171-7.669C30.604,3.236,35.006,6.049,37.977,10z M23,3.157c2.963,1.497,5.493,3.92,7.383,6.843H23    V3.157z M23,12h8.535c1.409,2.771,2.276,5.863,2.43,9H23V12z M23,23h10.965c-0.153,3.137-1.021,6.229-2.43,9H23V23z M23,34h7.383    c-1.89,2.923-4.42,5.346-7.383,6.843V34z M25.536,41.669c2.913-1.882,5.37-4.556,7.171-7.669h5.27    C35.006,37.951,30.604,40.764,25.536,41.669z M39.283,32h-5.54c1.295-2.803,2.085-5.871,2.224-9h5.988    C41.793,26.273,40.831,29.328,39.283,32z M35.967,21c-0.139-3.129-0.929-6.197-2.224-9h5.54c1.548,2.672,2.51,5.727,2.672,9    H35.967z"/>
    </g>
  </g>
</svg>
